<!DOCTYPE svg PUBLIC "-//W3C//DTD SVG 1.0//EN" "http://www.w3.org/TR/2001/REC-SVG-20010904/DTD/svg10.dtd" []><svg
    xmlns="http://www.w3.org/2000/svg" xmlns:xlink="http://www.w3.org/1999/xlink" id="body_1" width="108" height="150"
    viewBox="0 0 547 755">
    <g transform="matrix(1.3321967 0 0 1.3339223 -0 4.0708077E-05)">
        <g>
            <path
                d="M205.30078 0C 229.0039 44.503906 299.28516 112.91406 387.92578 112.91406C 394.76953 112.91406 401.73047 112.50781 408.78516 111.64844C 428.83594 361.4414 277.47656 512.10547 205.30078 566C 133.11719 512.10547 -18.238281 361.4414 1.8125 111.64844C 8.871094 112.50781 15.820313 112.91406 22.675781 112.91406C 111.30469 112.91406 181.60156 44.5 205.30078 0"
                stroke="none" fill="#D12229" fill-rule="nonzero" />
            <path
                d="M205.30078 26.683594C 172.63672 71.78906 105.35547 127.203125 22.675781 127.203125C 20.15625 127.203125 17.628906 127.15234 15.097656 127.05078C 12.292969 178.71875 16.914062 229.08984 28.863281 276.98438C 40.007812 321.64453 57.648438 364.73438 81.296875 405.0586C 100.64844 438.0547 123.984375 469.1953 150.65234 497.6211C 171.47266 519.8086 190.80469 536.5586 205.30078 547.9883C 219.79297 536.5586 239.1289 519.8086 259.9453 497.6211C 286.61328 469.1953 309.94922 438.0547 329.3047 405.0586C 352.95312 364.73438 370.59375 321.64453 381.73438 276.98438C 393.6836 229.08984 398.3047 178.71875 395.5 127.05078C 392.97266 127.15234 390.4414 127.203125 387.92578 127.203125C 305.2422 127.203125 237.96094 71.78906 205.30078 26.683594"
                stroke="none" fill="#FFFFFF" fill-rule="nonzero" />
            <path
                d="M205.30078 50.05078C 168.50781 93.80078 105.87109 139.10547 28.800781 141.40234C 27.507812 186.89062 32.171875 231.21484 42.726562 273.52344C 53.539062 316.85938 70.66016 358.6836 93.62109 397.82812C 112.4375 429.90625 135.13281 460.1914 161.07422 487.84375C 177.32812 505.16406 192.625 519.0586 205.30078 529.59766C 217.97266 519.0586 233.26953 505.16406 249.52344 487.84375C 275.46875 460.1914 298.16406 429.90625 316.97656 397.82812C 339.9375 358.6836 357.0586 316.85938 367.8711 273.52344C 378.42578 231.21484 383.08984 186.89062 381.79688 141.40234C 304.72656 139.10547 242.08984 93.80078 205.30078 50.05078"
                stroke="none" fill="#D12229" fill-rule="nonzero" />
            <path
                d="M94.203125 311.04297L316.39844 311.04297L316.39844 331.01172L334.11328 331.01172C 356.66797 275.67188 367.9297 216.73438 367.73047 154.84766C 299.3672 148.50781 242.71875 110.87891 205.30078 71.36328C 167.8789 110.87891 111.23047 148.50781 42.867188 154.84766C 42.664062 216.73438 53.929688 275.67188 76.484375 331.01172L76.484375 331.01172L94.203125 331.01172"
                stroke="none" fill="#FFFFFF" fill-rule="nonzero" />
            <path
                d="M108.48828 331.01172L302.10938 331.01172L302.10938 325.33203L108.48828 325.33203L108.48828 331.01172z"
                stroke="none" fill="#FFFFFF" fill-rule="nonzero" />
            <path
                d="M105.94531 390.59766C 124.22266 421.76172 146.27734 451.1914 171.49219 478.0664C 183.55469 490.92188 195.0625 501.8203 205.30078 510.8047C 215.53516 501.8203 227.04297 490.92188 239.10156 478.0664C 264.3203 451.1914 286.3711 421.76172 304.65234 390.59766C 313.33203 375.80078 321.10547 360.6914 328 345.30078L328 345.30078L82.59766 345.30078C 89.49219 360.6914 97.265625 375.80078 105.94531 390.59766"
                stroke="none" fill="#FFFFFF" fill-rule="nonzero" />
            <path
                d="M207.35156 438.86328L216.10547 438.86328L216.10547 351.70312L207.35156 351.70312L207.35156 438.86328z"
                stroke="none" fill="#000000" fill-rule="nonzero" />
            <path
                d="M283.4453 363.125L283.4453 387.22656L272.85938 403.66406L272.85938 351.69922L264.10938 351.69922L264.10938 437.83594L294.21484 391.0703L294.21484 363.125"
                stroke="none" fill="#000000" fill-rule="nonzero" />
            <path
                d="M177.34766 436.53906L177.34766 416.53516L164.48438 416.53516L164.48438 351.69922L157.16406 351.69922L157.16406 428.5039L166.09375 428.5039L169.66406 436.53906"
                stroke="none" fill="#000000" fill-rule="nonzero" />
            <path
                d="M194.49219 424.33594L184.3711 424.33594L184.3711 459.46484L171.8164 446.83984L171.8164 443.39062L167.34375 443.39062L167.34375 457.08203L191.16016 484.9453L195.32422 484.9453L195.32422 438.86328L203.2461 438.86328L203.2461 351.69922L194.49219 351.69922"
                stroke="none" fill="#000000" fill-rule="nonzero" />
            <path
                d="M143.4961 400.34375L140.07812 398.38672L140.07812 351.69922L131.86328 351.69922L131.86328 383.07812L117.484375 361.60938L117.484375 358.3711L126.46875 358.3711L127.35547 351.69922L101.140625 351.69922L101.58203 356.3125L147.38281 430.82812L151.71484 430.82812L151.71484 351.69922L143.4961 351.69922"
                stroke="none" fill="#000000" fill-rule="nonzero" />
            <path
                d="M177.04297 403.51953L184.9961 403.51953L184.9961 395.84375L177.04297 395.84375L177.04297 403.51953z"
                stroke="none" fill="#000000" fill-rule="nonzero" />
            <path
                d="M220.6914 421.71484L232.32812 421.71484L232.32812 458.39062L216.10547 474.61328L216.10547 454.22656L207.35156 454.22656L207.35156 503.1328L241.61719 468.8711L241.61719 407.1875L228.07031 407.1875L228.07031 394.4453L241.61719 394.4453L241.61719 383.375L220.6914 383.375"
                stroke="none" fill="#000000" fill-rule="nonzero" />
            <path d="M292.6211 351.6875L285.09375 351.6875L284.08203 359.9414L292.6211 359.9414L292.6211 351.6875z"
                stroke="none" fill="#000000" fill-rule="nonzero" />
            <path
                d="M252.92188 430.27344L245.98047 438.375L245.98047 463.78125L261.67188 445.46094L261.67188 383.375L252.92188 383.375"
                stroke="none" fill="#000000" fill-rule="nonzero" />
            <path
                d="M219.64453 217.5039C 216.5039 218.5 211.75781 219.58984 206.21094 219.5039L206.21094 219.5039L164.38281 198.67578L162.03516 193.97656C 174.625 190.96875 183.35938 190.73047 189.8711 187.85156C 200.13281 183.3125 206.82422 178.92188 224.03906 180.26172C 224.45312 192.16016 223.07422 204.75781 219.64453 217.5039zM169.6875 235.48438C 162.64844 229.73828 159.23047 221.79297 157.66797 200.29297L157.66797 200.29297L200.16406 221.45703C 197.3164 227.60938 180.23047 235.48438 169.6875 235.48438zM156.57812 173.98047L196.59766 110.92969C 196.59766 110.92969 201.1836 115.40234 201.1836 120.93359C 210.47266 130.22266 217.29688 143.0586 220.98438 157.94531C 210.39453 165.73047 200.83203 166.97266 187.8125 168.76172C 179.15234 169.94922 173.3125 177.10547 156.73047 176.23047zM310.13672 303.83203C 310.13672 301.21484 310.13672 299.09766 305.40234 299.09766C 292.65625 299.09766 283.59375 293.77734 277.98828 290.07422C 270.65625 285.22656 251.09375 265.1328 225.82812 219.82812C 229.95312 208.98438 236.3711 189.23828 236.3711 171.30078C 236.3711 171.14453 236.35938 170.98828 236.35938 170.82812L236.35938 170.82812L245.96094 169.35547L245.65625 176.89844L281.85938 159.51172L243.7539 155.22656L245.11328 160.8125L235.1836 162.33984C 232.25781 150.41016 224.42188 137.54297 217.32031 129.25C 209.08984 119.63672 200.7539 111.75 204.45703 95.57031C 204.45703 95.57031 200.32812 95.57031 194.21875 105.453125L194.21875 105.453125L152.01562 173.71094C 149.3711 174.83594 145.77734 175.96484 146.94531 173.32422C 146.94531 173.32422 145.21875 173.5039 145.7539 167.73047C 143.44922 167.73047 141.58594 166.41797 141.58594 166.41797L141.58594 166.41797L142.24219 163.1289C 143.8086 162.3711 145.15625 161.57031 145.7539 160.82031C 142.89453 158.5586 139.3164 151.89062 135.8711 149.51172C 135.53125 146.8711 136.9414 144.6289 136.9414 144.6289L136.9414 144.6289L134.5586 140.57812C 130.21094 140.86328 125.73828 139.7461 120.86719 139.7461C 113.67578 139.7461 104.62891 144.34375 100.76172 149.09375C 92.6875 159.01562 93.01953 175.48828 94.26953 194.86719C 89.35156 198.32812 81.08984 204.92578 81.08984 210.21094C 81.08984 217.14453 89.140625 217.6836 110.34375 216.20703C 126.04297 230.15625 132.92969 243.26172 131.58203 272.39453C 131.58203 272.39453 135.72266 275.07812 142.32031 277.59375C 142.98047 278.3828 143.78516 279.3164 144.71875 280.36328C 147.13672 290.3164 136.57031 292.1289 136.57031 297.15234C 136.57031 304.07422 139.65625 301.19922 140.9336 311.04297L140.9336 311.04297L161.10156 311.04297C 158.94922 305.6953 154.95312 302.78906 154.95312 300.95312C 154.95312 299.38672 156.84766 298.11328 163.98438 298.0625C 174.64844 305.9414 188.02734 312.79688 202.32031 312.79688C 212.84766 312.79688 218.375 306.67578 218.375 299.10938C 218.375 289.97656 208.0586 274.91797 202.34375 267.27734C 209.20703 259.60938 213.6875 250.60547 213.6875 250.60547L213.6875 250.60547L217.07812 251.67578C 217.07812 251.67578 226.36719 269.89453 249.23047 284.36328C 251.32812 291.5703 256.01953 297.40234 256.01953 297.40234C 257.26953 304.89453 260.54688 309.45312 261.8711 311.04297L261.8711 311.04297L299.60156 311.04297C 305.8047 309.83594 310.13672 307.0625 310.13672 303.83203"
                stroke="none" fill="#000000" fill-rule="nonzero" />
            <path
                d="M115.08984 185.58984C 115.09375 179.5039 114.28125 168.26562 114.27734 161.4961C 114.27734 160.1289 114.3125 158.9414 114.39844 157.98047C 114.50781 156.9961 114.55469 156.32812 114.96875 155.59375C 116.04297 153.90625 118.02344 152.33594 120.41797 150.83203C 122.8125 149.34766 125.609375 148 128.26562 147.0664L128.26562 147.0664L129.09375 149.42578C 126.62891 150.28906 123.96094 151.57422 121.73828 152.95312C 119.53125 154.3125 117.75781 155.83203 117.10547 156.89453C 117.10156 156.90234 117.09375 156.91797 117.08594 156.9414C 117.07031 156.99219 117.046875 157.08203 117.01953 157.19922C 116.97266 157.4375 116.92578 157.78125 116.88672 158.19922C 116.8125 159.03516 116.78125 160.17188 116.78125 161.4961C 116.77734 168.10938 117.58984 179.33984 117.58984 185.58984"
                stroke="none" fill="#FFFFFF" fill-rule="nonzero" />
            <path
                d="M149.25781 209.48828C 147.59375 208.39453 146.05469 207.78516 144.69531 207.46875C 142.61719 207.0039 141.34375 207.05469 139.92969 206.625C 138.83594 206.30469 137.4414 205.71094 135.41016 204.29688L135.41016 204.29688L133.20703 209.69922C 134.83594 210.73438 136.26172 211.42188 137.5664 211.8711C 139.16406 212.42578 140.53125 212.60156 141.57812 212.73438C 143.1875 212.95703 143.96094 213.02344 145.5664 213.92578C 146.97656 214.73828 149.00781 216.36719 151.96484 219.53906L151.96484 219.53906L152.4375 211.98047C 151.28906 210.95312 150.24219 210.13672 149.25781 209.48828"
                stroke="none" fill="#FFFFFF" fill-rule="nonzero" />
            <path
                d="M183.14453 253.58203C 183.14453 251.32031 166.35156 239.64844 166.35156 239.64844C 166.35156 239.64844 163.85156 240.96094 163.85156 244.17578C 163.85156 244.17578 176.11719 254.77344 181.47656 254.77344C 182.39844 254.77344 183.14453 254.24219 183.14453 253.58203"
                stroke="none" fill="#FFFFFF" fill-rule="nonzero" />
            <path
                d="M163.60156 278.26562C 163.58984 277.30078 164.51953 276.73047 162.75781 276.7461C 160.78906 276.76953 160.85938 275.6914 159.52344 274.40625C 156.71875 276.7539 161.6289 278.83984 163.60156 278.26562"
                stroke="none" fill="#BBBDBF" fill-rule="nonzero" />
            <path
                d="M152.65234 277.40625C 153.61719 275.95312 151.04688 273.23438 149.4336 274.40625C 149.97266 275.9375 150.99219 276.98828 152.65234 277.40625"
                stroke="none" fill="#BBBDBF" fill-rule="nonzero" />
            <path
                d="M171.32812 275.26172C 173.6836 275.58594 170.08594 271.47266 170.04297 271.40625C 166.23438 272.91016 170.61719 274.0586 171.32812 275.26172"
                stroke="none" fill="#BBBDBF" fill-rule="nonzero" />
            <path
                d="M178.84375 270.97656C 180.375 268.65234 178.13672 265.34766 175.41016 266.04688C 175.85156 268.10938 177.86719 268.9297 178.84375 270.97656"
                stroke="none" fill="#BBBDBF" fill-rule="nonzero" />
            <path
                d="M142.13281 272.04688C 141.1914 270.27344 139.84766 269.3789 140.19922 267.1172C 141.60938 266.7461 141.65234 268.73828 142.20312 269.40625C 142.4414 269.8711 142.70312 270.32422 142.99219 270.76172C 143.8789 270.91797 145.23047 270.94922 145.78125 271.83594L145.78125 271.83594L152.9375 271.83594C 155.51172 271.83594 157.11328 271.1875 159.38281 270.91797C 161.2461 270.6953 162.92969 269.89062 164.67578 269.26172C 166.26172 268.6914 167.89062 268.76562 169.32031 267.98438C 171.14062 266.9961 172.05078 266.9297 173.6914 265.40234C 173.91016 264.0547 173.96094 261.78516 175.6211 261.33203C 177.03125 262.2461 175.63672 262.83203 178.19922 262.83203C 177.8086 261.27344 176.53906 260.15234 176.26953 258.54688C 175.5625 258.4375 175.6875 259.29688 174.98047 259.1875C 174.25781 257.8789 173.39062 256.65234 172.41406 255.51953C 170.16016 252.90234 167.39453 250.80078 164.61719 248.76953C 162.41797 247.16406 158.6836 242.96875 156.1211 243.76172C 153.27344 244.64062 148.28906 244.8125 145.94922 246.3711C 144.28906 247.48047 143.35156 249.52344 141.40625 250.23828C 140.0586 250.73047 139.26953 249.94531 138.21484 251.1875C 137.19922 252.38281 137.23047 254.01172 137.46875 255.46484C 137.76562 257.28906 138.0039 261.8047 139.76953 262.6172C 139.46484 263.54688 139.91797 264.05078 140.3789 264.76172C 141.05078 265.79688 139.4375 266.23828 139.34375 264.54688C 138.1211 265.01953 137.4336 265.29297 137.40625 263.6914C 137.39062 262.9375 136.98828 262.73438 136.20312 263.09375C 134.33984 262.83594 135.53125 265.23438 135.78516 266.11328C 136.58594 268.8672 137.49219 275.875 142.13281 272.04688"
                stroke="none" fill="#BBBDBF" fill-rule="nonzero" />
        </g>
    </g>
</svg>